<svg height="480" viewBox="0 0 320 240" width="640" xmlns="http://www.w3.org/2000/svg" xmlns:xlink="http://www.w3.org/1999/xlink"><clipPath id="a"><path d="m25-60.000008h400v300h-400z"/></clipPath><g clip-path="url(#a)" transform="matrix(.8 0 0 .8 -20 48)"><path d="m0-60h450v300h-450z" fill="#fff"/><path d="m0 150h450v90h-450z" fill="#009543"/><path d="m0-60h450v90h-450z" fill="#00209f"/><g transform="matrix(1.136951 0 0 1.136951 -30.56399 -88.2596)"><path d="m224.57279 108.91288c-1.50388.0324-2.97116 1.69822-2.97116 1.69822l.12957 17.79578-5.61839 5.88594h4.54822l-.0384 10.20503-26.90654 36.23074-3.97746-1.37476-6.952 14.83008s17.19492 10.76695 42.15236 10.47257c27.39225-.32574 42.27445-10.96924 42.27445-10.96924l-7.18387-14.63937-3.51783 1.52979-27.25092-36.04277-.0384-10.50962h4.54822l-6.19007-5.81274.0366-17.73099s-1.54047-1.60105-3.04434-1.56866z" stroke="#000" stroke-width=".879545"/><path d="m233.9532 151.51811h-18.6046s-6.7528-14.22794-5.6582-24.17473c1.11455-10.12817 6.90291-14.91939 14.59866-15.00419 9.09883-.10138 13.86768 4.45847 15.30833 14.59867 1.42758 10.04818-5.64419 24.58025-5.64419 24.58025z" fill="none" stroke="#000" stroke-width="4.397728"/><g fill="#fff"><path d="m192.05034 185.43391c-.30414.40552-2.53449 4.86622-2.53449 4.86622l3.85243-.81104z"/><path d="m194.28069 191.21255-4.05518 1.31793 4.86622 1.92622z"/><path d="m196.10552 185.53529 2.0276 5.9814 4.9676-1.41932-1.31794-2.83863z"/><path d="m199.24829 193.64566.70966 2.43311 6.58968 1.62207-2.63587-5.57588z"/><path d="m206.54763 188.57668 2.33173 5.57588 4.9676-1.92622-1.62207-2.43311z"/><path d="m209.79178 196.18015.81103 2.12897 7.70486 1.11518-3.24415-5.06898z"/><path d="m217.19249 190.19875 2.83863 4.9676 7.19795-2.63587-.81103-1.92621z"/><path d="m221.34906 196.99119 1.52069 2.63587 8.92141-.30414-3.34553-4.9676z"/><path d="m230.77736 190.40151 2.43311 4.15657 5.67726-2.73725-1.52069-2.23036z"/><path d="m240.10429 193.54428-5.67726 2.83863 1.52069 2.43311 7.60347-1.21655z"/><path d="m241.92912 189.18496 2.94001 3.64966 4.76484-3.75105-1.62207-1.72345z"/><path d="m250.64777 191.11117-4.56208 3.44691 1.21655 2.12897 6.28554-1.62208z"/><path d="m256.93331 183.91321 1.11517 1.62208-3.14276 4.66346-3.24415-4.15656z"/><path d="m259.06228 187.9684 1.92621 3.85243-3.85242 1.31793-.30414-1.82483z"/></g></g></g></svg>