<svg height="480" width="640" xmlns="http://www.w3.org/2000/svg" xmlns:xlink="http://www.w3.org/1999/xlink"><linearGradient id="a"><stop offset="0" stop-color="#f00"/><stop offset="1" stop-color="#ff0"/></linearGradient><linearGradient id="b" gradientTransform="matrix(.64274 0 0 1.4534 -94.683 29.21)" gradientUnits="userSpaceOnUse" x1="103.08" x2="92.551" xlink:href="#a" y1="111.28" y2="107.76"/><linearGradient id="c" gradientTransform="matrix(.64274 0 0 1.4534 -94.666 30.155)" gradientUnits="userSpaceOnUse" x1="103.08" x2="92.551" xlink:href="#a" y1="111.28" y2="107.76"/><linearGradient id="d" gradientTransform="matrix(.64274 0 0 1.4534 -97.986 31.014)" gradientUnits="userSpaceOnUse" x1="103.08" x2="92.551" xlink:href="#a" y1="111.28" y2="107.76"/><linearGradient id="e" gradientTransform="matrix(.64274 0 0 1.4534 -94.743 31.932)" gradientUnits="userSpaceOnUse" x1="103.08" x2="92.551" xlink:href="#a" y1="111.28" y2="107.76"/><linearGradient id="f" gradientTransform="matrix(.64274 0 0 1.4534 -94.75 32.835)" gradientUnits="userSpaceOnUse" x1="103.08" x2="92.551" xlink:href="#a" y1="111.28" y2="107.76"/><linearGradient id="g" gradientTransform="matrix(.64274 0 0 1.4534 -94.767 33.751)" gradientUnits="userSpaceOnUse" x1="103.08" x2="92.551" xlink:href="#a" y1="111.28" y2="107.76"/><linearGradient id="h" gradientTransform="matrix(.64274 0 0 1.4534 -98.011 33.736)" gradientUnits="userSpaceOnUse" x1="103.08" x2="92.551" xlink:href="#a" y1="111.28" y2="107.76"/><linearGradient id="i" gradientTransform="matrix(.64274 0 0 1.4534 -97.981 32.837)" gradientUnits="userSpaceOnUse" x1="103.08" x2="92.551" xlink:href="#a" y1="111.28" y2="107.76"/><linearGradient id="j" gradientTransform="matrix(.64274 0 0 1.4534 -97.942 31.918)" gradientUnits="userSpaceOnUse" x1="103.08" x2="92.551" xlink:href="#a" y1="111.28" y2="107.76"/><linearGradient id="k" gradientTransform="matrix(.8281 0 0 1.8726 602.82 148.17)" gradientUnits="userSpaceOnUse" x1="103.08" x2="92.551" xlink:href="#a" y1="111.28" y2="107.76"/><linearGradient id="l" gradientTransform="matrix(.64274 0 0 1.4534 -97.976 30.11)" gradientUnits="userSpaceOnUse" x1="103.08" x2="92.551" xlink:href="#a" y1="111.28" y2="107.76"/><linearGradient id="m" gradientTransform="matrix(.64274 0 0 1.4534 -95.336 30.955)" gradientUnits="userSpaceOnUse" x1="103.08" x2="92.551" xlink:href="#a" y1="111.28" y2="107.76"/><clipPath id="n"><path d="m0 0h640v480h-640z"/></clipPath><g clip-path="url(#n)"><path d="m0 .000014h960v480h-960z" fill="#006" stroke-width="1pt"/><g transform="scale(.72917)"><path d="m0 .000216h480v240h-480z" fill="#006" fill-rule="evenodd"/><g stroke-width="1pt" transform="scale(8)"><path d="m0 0v3.3541l53.292 26.646h6.708v-3.354l-53.292-26.646h-6.708zm60 0v3.354l-53.292 26.646h-6.708v-3.354l53.292-26.646z" fill="#fff"/><path d="m25 0v30h10v-30zm-25 10v10h60v-10z" fill="#fff"/><g fill="#c00"><path d="m0 12v6h60v-6zm27-12v30h6v-30z"/><path d="m0 30 20-10h4.472l-20 10h-4.472zm0-30 20 10h-4.472l-15.528-7.7639v-2.2361zm35.528 10 20-10h4.472l-20 10zm24.472 20-20-10h4.472l15.528 7.764z"/></g></g></g><g transform="matrix(1.0265 0 0 1.0265 -301.49 28.259)"><path d="m662.41 122.94 213.68-.79287-.39644 190.29s7.5321 28.939-89.593 72.943c34.886-3.5678 72.943-40.832 72.943-40.832s15.461-19.821 22.993-8.7214c7.5321 11.1 14.668 16.65 20.218 21.011 5.55 4.3607 9.9106 16.254 1.5856 24.975-8.325 8.7214-21.407 9.9108-24.975-.79287-5.55 2.7751-39.643 44.004-109.41 45.986-70.961-1.1893-109.81-46.382-109.81-46.382s-9.5143 15.064-22.993 3.1715c-13.082-15.461-3.1714-25.372-3.1714-25.372s11.1-6.3428 14.271-10.704c5.1536-5.9465 6.7393-13.875 15.461-13.875 10.307.79288 14.271 9.1179 14.271 9.1179s35.679 37.661 74.132 42.418c-86.818-41.625-89.99-67.393-89.593-73.736l.39645-188.7z" fill="#fff" fill-rule="evenodd"/><path d="m667.56 128.09 203.76-1.1893v183.15c.39645 23.786-39.643 47.968-102.28 78.889-64.61-33.3-101.87-53.52-102.27-79.28l.79285-181.56z" fill="#006129" fill-rule="evenodd" stroke="#000" stroke-width="1.2551pt"/><g transform="matrix(1.2884 0 0 1.2884 602.15 110.19)"><path d="m69.786 170.53 9.3354-13.711 9.3809 13.74" fill="none" stroke="#f7c600" stroke-width=".97419pt"/><g stroke="#000"><path d="m80.922 156.72c.000323.94218-.7634 1.7061-1.7056 1.7061-.94222 0-1.7059-.76396-1.7056-1.7061-.000323-.94218.7634-1.7061 1.7056-1.7061.94222 0 1.7059.76396 1.7056 1.7061z" fill="#f7c600" fill-rule="evenodd" stroke-width=".56016" transform="matrix(1.087 0 0 1.087 -6.9653 -4.9563)"/><path d="m71.541 180.66 14.473.0412s.22693-1.8783-1.5117-3.0199c7.5805-1.0424 5.6112-7.7289 11.96-8.1079 1.2318.1895-3.3165 2.8427-3.3165 2.8427s-3.8277 2.7012-2.0846 4.0745c1.3839 1.0903 1.9899-.6632 2.1794-1.9898.18951-1.3266 6.1592-2.1794 5.3064-5.9696-1.4214-3.127-9.7599 2.0845-9.7599 2.0845l-5.9491-.033c-.37093-.6677-2.0105-3.3452-3.7036-3.3576-2.0088.0733-3.4237 3.3906-3.4237 3.3906h-8.6228-4.8326s-.46132 3.4524 6.3612 4.1157c1.536 2.0061 2.7268 2.5666 4.0621 3.0859-.89021.7419-1.1408 1.6394-1.1371 2.8427z" fill="#f7c600" fill-rule="evenodd" stroke-width=".60887"/><path d="m72.583 177.72 12.055-.0411" fill="none" stroke-width=".60887"/><path d="m67.062 170.61s.96439 5.6381 5.4154 6.9734" fill="none" stroke-width=".60887"/><path d="m66.32 170.54c.4451-2.1513 1.2611-2.5223 2.1513-5.2671.14837-2.6706-2.1513-2.3739-1.4837-4.0801 1.1869-1.8546.59347-3.635-1.632-5.0445.44511 2.4481-2.8932 4.7478-2.8932 6.7507 0 2.003 1.7062 1.5579 1.4837 4.5995.14837 1.7803-.4451 1.3353-.59347 3.0415h2.9674z" fill="url(#b)" fill-rule="evenodd" stroke-width=".60887"/><path d="m80.922 156.72c.000323.94218-.7634 1.7061-1.7056 1.7061-.94222 0-1.7059-.76396-1.7056-1.7061-.000323-.94218.7634-1.7061 1.7056-1.7061.94222 0 1.7059.76396 1.7056 1.7061z" fill="#f7c600" fill-rule="evenodd" stroke-width=".60887" transform="translate(-.074186 .44507)"/></g></g><g transform="matrix(1.2884 0 0 1.2884 601.47 73.831)"><path d="m69.786 170.53 9.3354-13.711 9.3809 13.74" fill="none" stroke="#f7c600" stroke-width=".97419pt"/><g stroke="#000"><path d="m80.922 156.72c.000323.94218-.7634 1.7061-1.7056 1.7061-.94222 0-1.7059-.76396-1.7056-1.7061-.000323-.94218.7634-1.7061 1.7056-1.7061.94222 0 1.7059.76396 1.7056 1.7061z" fill="#f7c600" fill-rule="evenodd" stroke-width=".56016" transform="matrix(1.087 0 0 1.087 -6.9653 -4.9563)"/><path d="m71.541 180.66 14.473.0412s.22693-1.8783-1.5117-3.0199c7.5805-1.0424 5.6112-7.7289 11.96-8.1079 1.2318.1895-3.3165 2.8427-3.3165 2.8427s-3.8277 2.7012-2.0846 4.0745c1.3839 1.0903 1.9899-.6632 2.1794-1.9898.18951-1.3266 6.1592-2.1794 5.3064-5.9696-1.4214-3.127-9.7599 2.0845-9.7599 2.0845l-5.9491-.033c-.37093-.6677-2.0105-3.3452-3.7036-3.3576-2.0088.0733-3.4237 3.3906-3.4237 3.3906h-8.6228-4.8326s-.46132 3.4524 6.3612 4.1157c1.536 2.0061 2.7268 2.5666 4.0621 3.0859-.89021.7419-1.1408 1.6394-1.1371 2.8427z" fill="#f7c600" fill-rule="evenodd" stroke-width=".60887"/><path d="m72.583 177.72 12.055-.0411" fill="none" stroke-width=".60887"/><path d="m67.062 170.61s.96439 5.6381 5.4154 6.9734" fill="none" stroke-width=".60887"/><path d="m66.32 170.54c.4451-2.1513 1.2611-2.5223 2.1513-5.2671.14837-2.6706-2.1513-2.3739-1.4837-4.0801 1.1869-1.8546.59347-3.635-1.632-5.0445.44511 2.4481-2.8932 4.7478-2.8932 6.7507 0 2.003 1.7062 1.5579 1.4837 4.5995.14837 1.7803-.4451 1.3353-.59347 3.0415h2.9674z" fill="url(#c)" fill-rule="evenodd" stroke-width=".60887"/><path d="m80.922 156.72c.000323.94218-.7634 1.7061-1.7056 1.7061-.94222 0-1.7059-.76396-1.7056-1.7061-.000323-.94218.7634-1.7061 1.7056-1.7061.94222 0 1.7059.76396 1.7056 1.7061z" fill="#f7c600" fill-rule="evenodd" stroke-width=".60887" transform="translate(-.074186 .44507)"/></g></g><g transform="matrix(1.2884 0 0 1.2884 729.25 40.779)"><path d="m69.786 170.53 9.3354-13.711 9.3809 13.74" fill="none" stroke="#f7c600" stroke-width=".97419pt"/><g stroke="#000"><path d="m80.922 156.72c.000323.94218-.7634 1.7061-1.7056 1.7061-.94222 0-1.7059-.76396-1.7056-1.7061-.000323-.94218.7634-1.7061 1.7056-1.7061.94222 0 1.7059.76396 1.7056 1.7061z" fill="#f7c600" fill-rule="evenodd" stroke-width=".56016" transform="matrix(1.087 0 0 1.087 -6.9653 -4.9563)"/><path d="m71.541 180.66 14.473.0412s.22693-1.8783-1.5117-3.0199c7.5805-1.0424 5.6112-7.7289 11.96-8.1079 1.2318.1895-3.3165 2.8427-3.3165 2.8427s-3.8277 2.7012-2.0846 4.0745c1.3839 1.0903 1.9899-.6632 2.1794-1.9898.18951-1.3266 6.1592-2.1794 5.3064-5.9696-1.4214-3.127-9.7599 2.0845-9.7599 2.0845l-5.9491-.033c-.37093-.6677-2.0105-3.3452-3.7036-3.3576-2.0088.0733-3.4237 3.3906-3.4237 3.3906h-8.6228-4.8326s-.46132 3.4524 6.3612 4.1157c1.536 2.0061 2.7268 2.5666 4.0621 3.0859-.89021.7419-1.1408 1.6394-1.1371 2.8427z" fill="#f7c600" fill-rule="evenodd" stroke-width=".60887"/><path d="m72.583 177.72 12.055-.0411" fill="none" stroke-width=".60887"/><path d="m67.062 170.61s.96439 5.6381 5.4154 6.9734" fill="none" stroke-width=".60887"/><path d="m66.32 170.54c.4451-2.1513 1.2611-2.5223 2.1513-5.2671.14837-2.6706-2.1513-2.3739-1.4837-4.0801 1.1869-1.8546.59347-3.635-1.632-5.0445.44511 2.4481-2.8932 4.7478-2.8932 6.7507 0 2.003 1.7062 1.5579 1.4837 4.5995.14837 1.7803-.4451 1.3353-.59347 3.0415h2.9674z" fill="url(#d)" fill-rule="evenodd" stroke-width=".60887"/><path d="m80.922 156.72c.000323.94218-.7634 1.7061-1.7056 1.7061-.94222 0-1.7059-.76396-1.7056-1.7061-.000323-.94218.7634-1.7061 1.7056-1.7061.94222 0 1.7059.76396 1.7056 1.7061z" fill="#f7c600" fill-rule="evenodd" stroke-width=".60887" transform="translate(-.074186 .44507)"/></g></g><g transform="matrix(1.2884 0 0 1.2884 604.45 5.4353)"><path d="m69.786 170.53 9.3354-13.711 9.3809 13.74" fill="none" stroke="#f7c600" stroke-width=".97419pt"/><g stroke="#000"><path d="m80.922 156.72c.000323.94218-.7634 1.7061-1.7056 1.7061-.94222 0-1.7059-.76396-1.7056-1.7061-.000323-.94218.7634-1.7061 1.7056-1.7061.94222 0 1.7059.76396 1.7056 1.7061z" fill="#f7c600" fill-rule="evenodd" stroke-width=".56016" transform="matrix(1.087 0 0 1.087 -6.9653 -4.9563)"/><path d="m71.541 180.66 14.473.0412s.22693-1.8783-1.5117-3.0199c7.5805-1.0424 5.6112-7.7289 11.96-8.1079 1.2318.1895-3.3165 2.8427-3.3165 2.8427s-3.8277 2.7012-2.0846 4.0745c1.3839 1.0903 1.9899-.6632 2.1794-1.9898.18951-1.3266 6.1592-2.1794 5.3064-5.9696-1.4214-3.127-9.7599 2.0845-9.7599 2.0845l-5.9491-.033c-.37093-.6677-2.0105-3.3452-3.7036-3.3576-2.0088.0733-3.4237 3.3906-3.4237 3.3906h-8.6228-4.8326s-.46132 3.4524 6.3612 4.1157c1.536 2.0061 2.7268 2.5666 4.0621 3.0859-.89021.7419-1.1408 1.6394-1.1371 2.8427z" fill="#f7c600" fill-rule="evenodd" stroke-width=".60887"/><path d="m72.583 177.72 12.055-.0411" fill="none" stroke-width=".60887"/><path d="m67.062 170.61s.96439 5.6381 5.4154 6.9734" fill="none" stroke-width=".60887"/><path d="m66.32 170.54c.4451-2.1513 1.2611-2.5223 2.1513-5.2671.14837-2.6706-2.1513-2.3739-1.4837-4.0801 1.1869-1.8546.59347-3.635-1.632-5.0445.44511 2.4481-2.8932 4.7478-2.8932 6.7507 0 2.003 1.7062 1.5579 1.4837 4.5995.14837 1.7803-.4451 1.3353-.59347 3.0415h2.9674z" fill="url(#e)" fill-rule="evenodd" stroke-width=".60887"/><path d="m80.922 156.72c.000323.94218-.7634 1.7061-1.7056 1.7061-.94222 0-1.7059-.76396-1.7056-1.7061-.000323-.94218.7634-1.7061 1.7056-1.7061.94222 0 1.7059.76396 1.7056 1.7061z" fill="#f7c600" fill-rule="evenodd" stroke-width=".60887" transform="translate(-.074186 .44507)"/></g></g><g transform="matrix(1.2884 0 0 1.2884 604.72 -29.303)"><path d="m69.786 170.53 9.3354-13.711 9.3809 13.74" fill="none" stroke="#f7c600" stroke-width=".97419pt"/><g stroke="#000"><path d="m80.922 156.72c.000323.94218-.7634 1.7061-1.7056 1.7061-.94222 0-1.7059-.76396-1.7056-1.7061-.000323-.94218.7634-1.7061 1.7056-1.7061.94222 0 1.7059.76396 1.7056 1.7061z" fill="#f7c600" fill-rule="evenodd" stroke-width=".56016" transform="matrix(1.087 0 0 1.087 -6.9653 -4.9563)"/><path d="m71.541 180.66 14.473.0412s.22693-1.8783-1.5117-3.0199c7.5805-1.0424 5.6112-7.7289 11.96-8.1079 1.2318.1895-3.3165 2.8427-3.3165 2.8427s-3.8277 2.7012-2.0846 4.0745c1.3839 1.0903 1.9899-.6632 2.1794-1.9898.18951-1.3266 6.1592-2.1794 5.3064-5.9696-1.4214-3.127-9.7599 2.0845-9.7599 2.0845l-5.9491-.033c-.37093-.6677-2.0105-3.3452-3.7036-3.3576-2.0088.0733-3.4237 3.3906-3.4237 3.3906h-8.6228-4.8326s-.46132 3.4524 6.3612 4.1157c1.536 2.0061 2.7268 2.5666 4.0621 3.0859-.89021.7419-1.1408 1.6394-1.1371 2.8427z" fill="#f7c600" fill-rule="evenodd" stroke-width=".60887"/><path d="m72.583 177.72 12.055-.0411" fill="none" stroke-width=".60887"/><path d="m67.062 170.61s.96439 5.6381 5.4154 6.9734" fill="none" stroke-width=".60887"/><path d="m66.32 170.54c.4451-2.1513 1.2611-2.5223 2.1513-5.2671.14837-2.6706-2.1513-2.3739-1.4837-4.0801 1.1869-1.8546.59347-3.635-1.632-5.0445.44511 2.4481-2.8932 4.7478-2.8932 6.7507 0 2.003 1.7062 1.5579 1.4837 4.5995.14837 1.7803-.4451 1.3353-.59347 3.0415h2.9674z" fill="url(#f)" fill-rule="evenodd" stroke-width=".60887"/><path d="m80.922 156.72c.000323.94218-.7634 1.7061-1.7056 1.7061-.94222 0-1.7059-.76396-1.7056-1.7061-.000323-.94218.7634-1.7061 1.7056-1.7061.94222 0 1.7059.76396 1.7056 1.7061z" fill="#f7c600" fill-rule="evenodd" stroke-width=".60887" transform="translate(-.074186 .44507)"/></g></g><g transform="matrix(1.2884 0 0 1.2884 605.38 -64.549)"><path d="m69.786 170.53 9.3354-13.711 9.3809 13.74" fill="none" stroke="#f7c600" stroke-width=".97419pt"/><g stroke="#000"><path d="m80.922 156.72c.000323.94218-.7634 1.7061-1.7056 1.7061-.94222 0-1.7059-.76396-1.7056-1.7061-.000323-.94218.7634-1.7061 1.7056-1.7061.94222 0 1.7059.76396 1.7056 1.7061z" fill="#f7c600" fill-rule="evenodd" stroke-width=".56016" transform="matrix(1.087 0 0 1.087 -6.9653 -4.9563)"/><path d="m71.541 180.66 14.473.0412s.22693-1.8783-1.5117-3.0199c7.5805-1.0424 5.6112-7.7289 11.96-8.1079 1.2318.1895-3.3165 2.8427-3.3165 2.8427s-3.8277 2.7012-2.0846 4.0745c1.3839 1.0903 1.9899-.6632 2.1794-1.9898.18951-1.3266 6.1592-2.1794 5.3064-5.9696-1.4214-3.127-9.7599 2.0845-9.7599 2.0845l-5.9491-.033c-.37093-.6677-2.0105-3.3452-3.7036-3.3576-2.0088.0733-3.4237 3.3906-3.4237 3.3906h-8.6228-4.8326s-.46132 3.4524 6.3612 4.1157c1.536 2.0061 2.7268 2.5666 4.0621 3.0859-.89021.7419-1.1408 1.6394-1.1371 2.8427z" fill="#f7c600" fill-rule="evenodd" stroke-width=".60887"/><path d="m72.583 177.72 12.055-.0411" fill="none" stroke-width=".60887"/><path d="m67.062 170.61s.96439 5.6381 5.4154 6.9734" fill="none" stroke-width=".60887"/><path d="m66.32 170.54c.4451-2.1513 1.2611-2.5223 2.1513-5.2671.14837-2.6706-2.1513-2.3739-1.4837-4.0801 1.1869-1.8546.59347-3.635-1.632-5.0445.44511 2.4481-2.8932 4.7478-2.8932 6.7507 0 2.003 1.7062 1.5579 1.4837 4.5995.14837 1.7803-.4451 1.3353-.59347 3.0415h2.9674z" fill="url(#g)" fill-rule="evenodd" stroke-width=".60887"/><path d="m80.922 156.72c.000323.94218-.7634 1.7061-1.7056 1.7061-.94222 0-1.7059-.76396-1.7056-1.7061-.000323-.94218.7634-1.7061 1.7056-1.7061.94222 0 1.7059.76396 1.7056 1.7061z" fill="#f7c600" fill-rule="evenodd" stroke-width=".60887" transform="translate(-.074186 .44507)"/></g></g><g transform="matrix(1.2884 0 0 1.2884 730.2 -63.975)"><path d="m69.786 170.53 9.3354-13.711 9.3809 13.74" fill="none" stroke="#f7c600" stroke-width=".97419pt"/><g stroke="#000"><path d="m80.922 156.72c.000323.94218-.7634 1.7061-1.7056 1.7061-.94222 0-1.7059-.76396-1.7056-1.7061-.000323-.94218.7634-1.7061 1.7056-1.7061.94222 0 1.7059.76396 1.7056 1.7061z" fill="#f7c600" fill-rule="evenodd" stroke-width=".56016" transform="matrix(1.087 0 0 1.087 -6.9653 -4.9563)"/><path d="m71.541 180.66 14.473.0412s.22693-1.8783-1.5117-3.0199c7.5805-1.0424 5.6112-7.7289 11.96-8.1079 1.2318.1895-3.3165 2.8427-3.3165 2.8427s-3.8277 2.7012-2.0846 4.0745c1.3839 1.0903 1.9899-.6632 2.1794-1.9898.18951-1.3266 6.1592-2.1794 5.3064-5.9696-1.4214-3.127-9.7599 2.0845-9.7599 2.0845l-5.9491-.033c-.37093-.6677-2.0105-3.3452-3.7036-3.3576-2.0088.0733-3.4237 3.3906-3.4237 3.3906h-8.6228-4.8326s-.46132 3.4524 6.3612 4.1157c1.536 2.0061 2.7268 2.5666 4.0621 3.0859-.89021.7419-1.1408 1.6394-1.1371 2.8427z" fill="#f7c600" fill-rule="evenodd" stroke-width=".60887"/><path d="m72.583 177.72 12.055-.0411" fill="none" stroke-width=".60887"/><path d="m67.062 170.61s.96439 5.6381 5.4154 6.9734" fill="none" stroke-width=".60887"/><path d="m66.32 170.54c.4451-2.1513 1.2611-2.5223 2.1513-5.2671.14837-2.6706-2.1513-2.3739-1.4837-4.0801 1.1869-1.8546.59347-3.635-1.632-5.0445.44511 2.4481-2.8932 4.7478-2.8932 6.7507 0 2.003 1.7062 1.5579 1.4837 4.5995.14837 1.7803-.4451 1.3353-.59347 3.0415h2.9674z" fill="url(#h)" fill-rule="evenodd" stroke-width=".60887"/><path d="m80.922 156.72c.000323.94218-.7634 1.7061-1.7056 1.7061-.94222 0-1.7059-.76396-1.7056-1.7061-.000323-.94218.7634-1.7061 1.7056-1.7061.94222 0 1.7059.76396 1.7056 1.7061z" fill="#f7c600" fill-rule="evenodd" stroke-width=".60887" transform="translate(-.074186 .44507)"/></g></g><g transform="matrix(1.2884 0 0 1.2884 729.06 -29.376)"><path d="m69.786 170.53 9.3354-13.711 9.3809 13.74" fill="none" stroke="#f7c600" stroke-width=".97419pt"/><g stroke="#000"><path d="m80.922 156.72c.000323.94218-.7634 1.7061-1.7056 1.7061-.94222 0-1.7059-.76396-1.7056-1.7061-.000323-.94218.7634-1.7061 1.7056-1.7061.94222 0 1.7059.76396 1.7056 1.7061z" fill="#f7c600" fill-rule="evenodd" stroke-width=".56016" transform="matrix(1.087 0 0 1.087 -6.9653 -4.9563)"/><path d="m71.541 180.66 14.473.0412s.22693-1.8783-1.5117-3.0199c7.5805-1.0424 5.6112-7.7289 11.96-8.1079 1.2318.1895-3.3165 2.8427-3.3165 2.8427s-3.8277 2.7012-2.0846 4.0745c1.3839 1.0903 1.9899-.6632 2.1794-1.9898.18951-1.3266 6.1592-2.1794 5.3064-5.9696-1.4214-3.127-9.7599 2.0845-9.7599 2.0845l-5.9491-.033c-.37093-.6677-2.0105-3.3452-3.7036-3.3576-2.0088.0733-3.4237 3.3906-3.4237 3.3906h-8.6228-4.8326s-.46132 3.4524 6.3612 4.1157c1.536 2.0061 2.7268 2.5666 4.0621 3.0859-.89021.7419-1.1408 1.6394-1.1371 2.8427z" fill="#f7c600" fill-rule="evenodd" stroke-width=".60887"/><path d="m72.583 177.72 12.055-.0411" fill="none" stroke-width=".60887"/><path d="m67.062 170.61s.96439 5.6381 5.4154 6.9734" fill="none" stroke-width=".60887"/><path d="m66.32 170.54c.4451-2.1513 1.2611-2.5223 2.1513-5.2671.14837-2.6706-2.1513-2.3739-1.4837-4.0801 1.1869-1.8546.59347-3.635-1.632-5.0445.44511 2.4481-2.8932 4.7478-2.8932 6.7507 0 2.003 1.7062 1.5579 1.4837 4.5995.14837 1.7803-.4451 1.3353-.59347 3.0415h2.9674z" fill="url(#i)" fill-rule="evenodd" stroke-width=".60887"/><path d="m80.922 156.72c.000323.94218-.7634 1.7061-1.7056 1.7061-.94222 0-1.7059-.76396-1.7056-1.7061-.000323-.94218.7634-1.7061 1.7056-1.7061.94222 0 1.7059.76396 1.7056 1.7061z" fill="#f7c600" fill-rule="evenodd" stroke-width=".60887" transform="translate(-.074186 .44507)"/></g></g><g transform="matrix(1.2884 0 0 1.2884 727.53 5.9883)"><path d="m69.786 170.53 9.3354-13.711 9.3809 13.74" fill="none" stroke="#f7c600" stroke-width=".97419pt"/><g stroke="#000"><path d="m80.922 156.72c.000323.94218-.7634 1.7061-1.7056 1.7061-.94222 0-1.7059-.76396-1.7056-1.7061-.000323-.94218.7634-1.7061 1.7056-1.7061.94222 0 1.7059.76396 1.7056 1.7061z" fill="#f7c600" fill-rule="evenodd" stroke-width=".56016" transform="matrix(1.087 0 0 1.087 -6.9653 -4.9563)"/><path d="m71.541 180.66 14.473.0412s.22693-1.8783-1.5117-3.0199c7.5805-1.0424 5.6112-7.7289 11.96-8.1079 1.2318.1895-3.3165 2.8427-3.3165 2.8427s-3.8277 2.7012-2.0846 4.0745c1.3839 1.0903 1.9899-.6632 2.1794-1.9898.18951-1.3266 6.1592-2.1794 5.3064-5.9696-1.4214-3.127-9.7599 2.0845-9.7599 2.0845l-5.9491-.033c-.37093-.6677-2.0105-3.3452-3.7036-3.3576-2.0088.0733-3.4237 3.3906-3.4237 3.3906h-8.6228-4.8326s-.46132 3.4524 6.3612 4.1157c1.536 2.0061 2.7268 2.5666 4.0621 3.0859-.89021.7419-1.1408 1.6394-1.1371 2.8427z" fill="#f7c600" fill-rule="evenodd" stroke-width=".60887"/><path d="m72.583 177.72 12.055-.0411" fill="none" stroke-width=".60887"/><path d="m67.062 170.61s.96439 5.6381 5.4154 6.9734" fill="none" stroke-width=".60887"/><path d="m66.32 170.54c.4451-2.1513 1.2611-2.5223 2.1513-5.2671.14837-2.6706-2.1513-2.3739-1.4837-4.0801 1.1869-1.8546.59347-3.635-1.632-5.0445.44511 2.4481-2.8932 4.7478-2.8932 6.7507 0 2.003 1.7062 1.5579 1.4837 4.5995.14837 1.7803-.4451 1.3353-.59347 3.0415h2.9674z" fill="url(#j)" fill-rule="evenodd" stroke-width=".60887"/><path d="m80.922 156.72c.000323.94218-.7634 1.7061-1.7056 1.7061-.94222 0-1.7059-.76396-1.7056-1.7061-.000323-.94218.7634-1.7061 1.7056-1.7061.94222 0 1.7059.76396 1.7056 1.7061z" fill="#f7c600" fill-rule="evenodd" stroke-width=".60887" transform="translate(-.074186 .44507)"/></g></g><path d="m818.97 330.26 12.028-17.665 12.086 17.702" fill="none" stroke="#f7c600" stroke-width="1.2551"/><g stroke="#000"><path d="m833.41 323.66c.00046 1.3195-1.0691 2.3894-2.3887 2.3894s-2.3892-1.0699-2.3887-2.3894c-.00046-1.3195 1.0691-2.3894 2.3887-2.3894 1.3195 0 2.3891 1.0699 2.3887 2.3894z" fill="#f7c600" fill-rule="evenodd" stroke-width=".78449"/><path d="m821.23 343.31 18.647.053s.29238-2.42-1.9477-3.8908c9.7667-1.343 7.2295-9.9579 15.409-10.446 1.5871.24417-4.2729 3.6625-4.2729 3.6625s-4.9317 3.4802-2.6859 5.2496c1.783 1.4047 2.5638-.85447 2.808-2.5637.24415-1.7092 7.9354-2.8079 6.8367-7.6912-1.8313-4.0288-12.575 2.6857-12.575 2.6857l-7.6648-.0425c-.47791-.86027-2.5903-4.31-4.7717-4.3259-2.5881.0944-4.4111 4.3684-4.4111 4.3684h-11.11-6.2263s-.59436 4.4481 8.1957 5.3026c1.979 2.5846 3.5131 3.3068 5.2336 3.9759-1.147.95586-1.4698 2.1122-1.465 3.6625z" fill="#f7c600" fill-rule="evenodd" stroke-width=".78446"/><path d="m822.57 339.52 15.531-.0529" fill="none" stroke-width=".78446"/><path d="m815.46 330.37s1.2425 7.2641 6.9772 8.9845" fill="none" stroke-width=".78446"/><path d="m814.5 330.27c.57346-2.7717 1.6248-3.2497 2.7718-6.7861.19116-3.4408-2.7718-3.0585-1.9116-5.2568 1.5292-2.3895.76463-4.6833-2.1027-6.4993.57347 3.1541-3.7276 6.117-3.7276 8.6976 0 2.5807 2.1983 2.0072 1.9116 5.926.19116 2.2937-.57346 1.7204-.76462 3.9187h3.8231z" fill="url(#k)" fill-rule="evenodd" stroke-width=".78446"/><path d="m833.22 313.05c.00042 1.2139-.98356 2.1982-2.1975 2.1982-1.214 0-2.1979-.98428-2.1975-2.1982-.00041-1.2139.98357-2.1982 2.1975-2.1982s2.1979.98428 2.1975 2.1982z" fill="#f7c600" fill-rule="evenodd" stroke-width=".78446"/></g><g transform="matrix(1.2884 0 0 1.2884 728.87 75.569)"><path d="m69.786 170.53 9.3354-13.711 9.3809 13.74" fill="none" stroke="#f7c600" stroke-width=".97419pt"/><g stroke="#000"><path d="m80.922 156.72c.000323.94218-.7634 1.7061-1.7056 1.7061-.94222 0-1.7059-.76396-1.7056-1.7061-.000323-.94218.7634-1.7061 1.7056-1.7061.94222 0 1.7059.76396 1.7056 1.7061z" fill="#f7c600" fill-rule="evenodd" stroke-width=".56016" transform="matrix(1.087 0 0 1.087 -6.9653 -4.9563)"/><path d="m71.541 180.66 14.473.0412s.22693-1.8783-1.5117-3.0199c7.5805-1.0424 5.6112-7.7289 11.96-8.1079 1.2318.1895-3.3165 2.8427-3.3165 2.8427s-3.8277 2.7012-2.0846 4.0745c1.3839 1.0903 1.9899-.6632 2.1794-1.9898.18951-1.3266 6.1592-2.1794 5.3064-5.9696-1.4214-3.127-9.7599 2.0845-9.7599 2.0845l-5.9491-.033c-.37093-.6677-2.0105-3.3452-3.7036-3.3576-2.0088.0733-3.4237 3.3906-3.4237 3.3906h-8.6228-4.8326s-.46132 3.4524 6.3612 4.1157c1.536 2.0061 2.7268 2.5666 4.0621 3.0859-.89021.7419-1.1408 1.6394-1.1371 2.8427z" fill="#f7c600" fill-rule="evenodd" stroke-width=".60887"/><path d="m72.583 177.72 12.055-.0411" fill="none" stroke-width=".60887"/><path d="m67.062 170.61s.96439 5.6381 5.4154 6.9734" fill="none" stroke-width=".60887"/><path d="m66.32 170.54c.4451-2.1513 1.2611-2.5223 2.1513-5.2671.14837-2.6706-2.1513-2.3739-1.4837-4.0801 1.1869-1.8546.59347-3.635-1.632-5.0445.44511 2.4481-2.8932 4.7478-2.8932 6.7507 0 2.003 1.7062 1.5579 1.4837 4.5995.14837 1.7803-.4451 1.3353-.59347 3.0415h2.9674z" fill="url(#l)" fill-rule="evenodd" stroke-width=".60887"/><path d="m80.922 156.72c.000323.94218-.7634 1.7061-1.7056 1.7061-.94222 0-1.7059-.76396-1.7056-1.7061-.000323-.94218.7634-1.7061 1.7056-1.7061.94222 0 1.7059.76396 1.7056 1.7061z" fill="#f7c600" fill-rule="evenodd" stroke-width=".60887" transform="translate(-.074186 .44507)"/></g></g><g transform="matrix(1.2884 0 0 1.2884 627.25 43.056)"><path d="m69.786 170.53 9.3354-13.711 9.3809 13.74" fill="none" stroke="#f7c600" stroke-width=".97419pt"/><g stroke="#000"><path d="m80.922 156.72c.000323.94218-.7634 1.7061-1.7056 1.7061-.94222 0-1.7059-.76396-1.7056-1.7061-.000323-.94218.7634-1.7061 1.7056-1.7061.94222 0 1.7059.76396 1.7056 1.7061z" fill="#f7c600" fill-rule="evenodd" stroke-width=".56016" transform="matrix(1.087 0 0 1.087 -6.9653 -4.9563)"/><path d="m71.541 180.66 14.473.0412s.22693-1.8783-1.5117-3.0199c7.5805-1.0424 5.6112-7.7289 11.96-8.1079 1.2318.1895-3.3165 2.8427-3.3165 2.8427s-3.8277 2.7012-2.0846 4.0745c1.3839 1.0903 1.9899-.6632 2.1794-1.9898.18951-1.3266 6.1592-2.1794 5.3064-5.9696-1.4214-3.127-9.7599 2.0845-9.7599 2.0845l-5.9491-.033c-.37093-.6677-2.0105-3.3452-3.7036-3.3576-2.0088.0733-3.4237 3.3906-3.4237 3.3906h-8.6228-4.8326s-.46132 3.4524 6.3612 4.1157c1.536 2.0061 2.7268 2.5666 4.0621 3.0859-.89021.7419-1.1408 1.6394-1.1371 2.8427z" fill="#f7c600" fill-rule="evenodd" stroke-width=".60887"/><path d="m72.583 177.72 12.055-.0411" fill="none" stroke-width=".60887"/><path d="m67.062 170.61s.96439 5.6381 5.4154 6.9734" fill="none" stroke-width=".60887"/><path d="m66.32 170.54c.4451-2.1513 1.2611-2.5223 2.1513-5.2671.14837-2.6706-2.1513-2.3739-1.4837-4.0801 1.1869-1.8546.59347-3.635-1.632-5.0445.44511 2.4481-2.8932 4.7478-2.8932 6.7507 0 2.003 1.7062 1.5579 1.4837 4.5995.14837 1.7803-.4451 1.3353-.59347 3.0415h2.9674z" fill="url(#m)" fill-rule="evenodd" stroke-width=".60887"/><path d="m80.922 156.72c.000323.94218-.7634 1.7061-1.7056 1.7061-.94222 0-1.7059-.76396-1.7056-1.7061-.000323-.94218.7634-1.7061 1.7056-1.7061.94222 0 1.7059.76396 1.7056 1.7061z" fill="#f7c600" fill-rule="evenodd" stroke-width=".60887" transform="translate(-.074186 .44507)"/></g></g><g stroke="#000" transform="matrix(1.2884 0 0 1.2884 602.15 109.79)"><g stroke-width=".60887"><path d="m139.22 183.9s3.7768 8.7077 8.0782 3.3572 2.7278-7.6586 2.7278-7.6586l-9.652-5.2456-2.8326 5.98z" fill="#f7c600" fill-rule="evenodd"/><path d="m147.51 182.75s.6294.105 1.154-.8392-1.154-1.364-1.8884-2.4131l-.8393 1.6787z" fill="#ffc6b5" fill-rule="evenodd"/><path d="m125.68 180.44-8.4979 4.6161s-4.1965.8392-4.5112 0c-.3148-.8393.1049-1.5737 2.308-1.6786 2.2032-.1049 8.1832-5.5604 8.1832-5.5604z" fill="#ffc6b5" fill-rule="evenodd"/><path d="m125.79 29.47s.2098 1.9933.3147 3.0424-1.6786 3.2523-1.7835 3.1474-.9442.10491-.8393.73441 1.3639.83931 1.3639.83931-.5246 2.2031 0 2.308c.5245.10491-1.3639 2.8327 0 3.567 1.3638.73433 3.6719 1.6785 4.721 1.4687 1.0491-.20981 0 4.0916 0 4.0916l-2.9375 6.2947 16.156-1.6785-3.3572-5.3506s-1.5736-1.0491-1.154-4.0916c.4197-3.0424-.2098-16.786-.2098-16.786l-11.54-1.5737-.7344 3.9867z" fill="#ffc6b5" fill-rule="evenodd"/><path d="m122.85 53.39s-5.2456 2.413-5.0358 8.9175c-1.3638 6.2947-2.0982 12.589-2.0982 12.589s-6.1898 7.029-8.0782 9.547c-1.8884 2.5179-4.7211 7.6585-5.7702 9.0224s-5.1407 5.8752-5.0358 7.5537c.10491 1.6785-.94421 9.1274 3.1474 9.9666 1.0491.4196 4.4063-8.6028 4.4063-8.6028s.2098-3.8817-.9442-4.6161 2.5179-3.2523 2.5179-3.2523 7.0291-5.1407 8.6028-6.3996 5.8751-6.0849 5.8751-6.0849l2.4129-28.641z" fill="#ffc6b5" fill-rule="evenodd"/><path d="m128.83 48.459s1.3639 3.672 4.4063 3.0424c3.0425-.6295 6.6095-3.4621 6.6095-3.4621s2.8326-.10491 3.2523.31471c.4196.41962 7.6585 7.4486 7.4487 9.6519-.2098 2.2032-3.3572 1.5736-4.5112 3.0424s-3.0425 5.1407-2.5179 7.8684 2.0982 6.2948 1.8884 7.6586-1.3638 1.7834-1.3638 2.5178c0 .73441.9442 1.9934.9442 3.3572s-1.259 3.3571-1.0491 4.721c.2098 1.3639.3147 5.3505.3147 5.3505l-.3147 18.465s1.0491.6294 1.154 1.6786c.1049 1.0491 7.134 31.578 7.134 31.578s-.3147.9442-1.0491.8393 2.8326 4.721 2.9375 6.0849 3.672 12.065 3.567 13.534c-.1049 1.4687-.6294 4.721-.9442 4.8259-.3147.1049 2.3081 6.7144 1.8884 7.7635-.4196 1.0491-4.721.9442-4.721.9442l-1.154-.2098s.1049 1.3639-.7344 1.4688-7.0291-.3148-7.0291-.3148-1.7835 2.7277-2.8326 2.6228c-1.0492-.1049-2.413-1.9933-2.7278-1.6785-.3147.3147.9443 2.0981.6295 2.6227-.3147.5246-5.6652 1.6787-6.7144-.8392-1.0491-2.5179.6295-1.8885.3148-2.413-.3148-.5246-2.7277-1.8884-3.4621-1.4688s1.8884 1.0491 1.7835 2.0983c-.1049 1.0491-2.3081 2.6227-3.1474 2.6227s-2.8326-3.8817-5.7701-3.462c-2.9376.4196-4.826 1.154-4.826 1.154s-3.4621 1.4687-4.9309 1.154c-1.4687-.3147-2.0982-1.4688-2.0982-2.0982 0-.6295 1.0491-3.3572.9442-4.1965s-.9442-1.6786-.9442-2.9376c0-1.2589 2.413-5.5603 2.413-5.5603l-.1049-19.304s-2.2032-.0001-2.3081-1.3639 3.3572-30.529 3.8817-32.418c.5246-1.8884 1.8885-8.6028 1.8885-8.6028s-1.5737.7344-1.6786 0 4.721-17.415 4.721-17.415.8393-8.2881.8393-10.491c0-2.2031-.4196-5.2456-.4196-5.2456s-4.3072-1.8234-4.4064-4.6161c-.3939-4.4434 4.0916-6.9243 4.6162-8.393.5245-1.4687 2.0982-5.875 2.0982-5.875s2.3081-3.9867 6.0849-4.6162z" fill="#fff" fill-rule="evenodd"/><path d="m127.26 181.7s-10.176 5.3506-11.645 5.7702c-1.4688.4196-2.413-1.7835-.9442-2.2032 1.4688-.4196 3.7768-.6295 3.7768-.6295s-3.4621-2.7277-3.3572-2.8326c.105-.1049 4.7211-1.7834 4.826-1.7834s1.4688 2.7276 2.413 2.5178 3.6719-2.308 3.6719-2.308 1.4688 1.6786 1.2589 1.4687z" fill="#f7c600" fill-rule="evenodd"/><path d="m141.6 184.63c.9622 1.2409 1.3384 3.3932 3.5416 2.1343 2.2031-1.2589-1.1286-3.5956-1.1286-3.5956z" fill="#ffc6b5" fill-rule="evenodd"/><path d="m145.62 184.42s1.0491.8393 1.9933-.1049-1.8885-2.9375-1.8885-2.9375l-1.3638 1.5737z" fill="#ffc6b5" fill-rule="evenodd"/><path d="m142.47 52.55s-9.3372 5.98-9.1274 8.0782" fill="none"/><path d="m144.57 53.599s-2.0982 2.308-2.2031 2.308" fill="none"/><path d="m147.4 56.117s-4.6162 3.7768-3.8818 6.1898" fill="none"/><path d="m125.58 52.026s-1.3638 2.8326-1.0491 3.7768c.3148.94421 2.6228 4.5113 2.9376 6.7144.3147 2.2031 0 3.7769 0 3.7769" fill="none"/><path d="m123.17 57.271s.4196 3.3572 1.0491 3.9867c.6295.62943 2.3081 3.4621 2.5179 4.6161" fill="none"/><path d="m122.33 71.224s2.7277 1.364 5.2456-3.8817" fill="none"/><path d="m131.66 63.671c-.1049 0-1.9933 5.1407 1.3639 7.0291s5.8751 1.6785 7.3438 1.154c1.4688-.52452 3.0425-1.4687 3.0425-1.4687" fill="none"/><path d="m130.2 69.966s.2098 6.9243 10.386 13.744" fill="none"/><path d="m130.62 76.47s-.1049 6.0848 3.8818 8.8126" fill="none"/><path d="m128.52 69.336s-3.0425 9.0224-5.4554 9.9666" fill="none"/><path d="m127.57 75.946s-.1049 6.5046-.9442 8.8126" fill="none"/><path d="m125.79 86.332s2.0982 2.6228 4.4063 2.413c2.308-.20981 3.2522-2.9376 4.8259-2.5179 1.5737.41969 3.0425 1.6787 6.7144 1.3639" fill="none"/><path d="m136.49 90.318s0 5.3505.9442 5.8751.5246 5.4554.5246 5.4554" fill="none"/><path d="m123.69 87.801s-.1049 5.0359-.7344 6.8193c-.6294 1.7834-1.8884 4.826-1.6785 7.4488" fill="none"/><path d="m117.29 105.01c.5245-.2098 2.3081-1.7834 2.3081-1.7834" fill="none"/><path d="m120.54 104.38s-4.5113 19.304-3.2523 30.844" fill="none"/><path d="m121.59 105.32s-2.3081 14.478-1.259 17.206" fill="none"/><path d="m120.44 104.9c.1049 0 8.8126.6294 8.8126.6294" fill="none"/><path d="m130.51 104.38s2.413 1.259 5.7702 1.0491" fill="none"/><path d="m129.46 111.41s-.4197 24.759-1.0491 30.215" fill="none"/><path d="m142.37 117.07s2.7277 21.717 4.3014 23.71" fill="none"/><path d="m137.12 119.8s1.6786 19.199 2.6228 20.878" fill="none"/><path d="m113.31 147.39s3.2522-1.0492 6.1897-4.1965c3.3573 4.5112 8.4979.2099 8.4979.2099s7.9733 5.4554 11.54-.6295c5.4554 3.567 8.1831-.5246 8.1831-.5246s1.9934 3.0424 3.4621 2.7277" fill="none"/><path d="m142.47 147.08s4.0916 19.199 10.176 24.654" fill="none"/><path d="m121.38 145.08s.5245 16.052 1.4687 27.382" fill="none"/><path d="m120.65 163.23s-.5246 10.491-1.1541 11.226" fill="none"/><path d="m114.46 175.51s1.154 4.5113 6.9242.3148c5.7701-4.1966 5.875 1.5737 6.0849 2.2031.2098.6294 1.154 5.1407 3.3571 1.3639" fill="none"/><path d="m135.44 173.2s-.9442 9.337 7.3438 2.5178c8.2881-6.8192 9.6519-.1048 9.8617 1.9934" fill="none"/><path d="m125.47 28.84s2.3081.31464 3.567-.41969c1.259-.73433 2.7278-1.049 3.7769.41969s1.7835 1.3638 1.7835 1.3638-1.5737 3.8817 0 4.3014c1.5737.41969 2.308.41962 2.413.94421.1049.5246-1.3639 1.6786-.9443 2.2031.4197.5246 1.1541 1.1541 1.259 1.5737.1049.41962-.9442 2.2031-.6295 2.6228.3148.41969 1.259 2.0983 1.8884 2.0983.6295 0 .2099 2.6228 2.0983 1.9933s1.7835-2.3081 1.7835-2.3081 1.9933-.31471 2.5179-2.0982c.5245-1.7835 1.7835-2.2031 1.7835-2.2031s2.5179-1.3638-.8393-3.4621c0-14.688-9.6519-13.114-9.6519-13.114s-1.1541-2.6229-3.0425-2.3081c-1.8884.31479-1.9933 2.518-3.3572 2.3081-1.3638-.20988-1.6785-1.154-1.7835-1.0491-.1049.1049-1.2589 2.2031-1.2589 2.7277 0 .52459-3.6719-.73441-3.3572 1.9933s2.0982 2.6228 1.9933 2.413z" fill="#9c5100" fill-rule="evenodd"/><path d="m135.55 25.273s-.7344 4.6161 4.1965 4.1965c-.6295 2.5179 1.2589 3.3572 1.2589 3.3572" fill="none"/><path d="m144.67 35.659c.105 0 2.2032 1.3638-.1049 3.0424" fill="none"/><path d="m137.54 39.331s1.049 1.259 2.2031.94429c1.154-.31472 3.0424 1.154 3.0424 1.154s1.5737.52452 1.7835.20981" fill="none"/><path d="m131.14 43.318s3.567 1.3639 5.8751-4.3014" fill="none"/><path d="m124.53 37.338 2.0983.10491" fill="none"/><path d="m124.85 39.436h1.8884l-1.6786.7344" fill="none" stroke-linejoin="round"/></g><path d="m127.47 33.561c.3147 0 1.4687-.4197 1.6786-.10491.2098.31479-1.259.5246-1.6786.10491z" fill="none" stroke-linejoin="round" stroke-width="1.096"/><path d="m150.13 58.487c.1049 0 3.4621 10.386 3.8817 13.009.4197 2.6228 1.7835 13.114 1.259 14.583-.5246 1.4688-5.8751 8.4978-6.5046 10.281-.6295 1.7835-4.4063 8.6029-4.4063 8.6029s-.9442 6.7144-1.3639 7.0291c-.4196.3148 1.0831 1.9628.9443 2.5179-.2082.6245-3.0425 3.567-4.3014 3.2523-1.259-.3148-3.2523-1.7836-3.3572-3.1474s.1049-5.8751 1.0491-7.0291 5.8751-12.799 6.1898-13.534c.3147-.73441 4.5112-9.8617 4.6161-11.435.105-1.5737-1.3054-5.2127-2.7891-6.548-3.302-9.7182-2.0046-15.579 4.7825-17.582z" fill="#ffc6b5" fill-rule="evenodd" stroke-width=".60887"/><path d="m101.25 103.5.1642 4.5977" fill="none" stroke-width=".60887"/><path d="m96.942 103.16s2.9477 4.9298 2.7014 7.557" fill="none" stroke-width=".60887"/><path d="m136.45 113.46s2.204-.2316 2.1346 3.4481c1.4074-4.5711 4.2692-4.6797 4.2692-4.6797" fill="none" stroke-linejoin="round" stroke-width=".60887"/></g><path d="m768.25 391.32c57.086-1.5858 93.954-42.814 93.557-43.211-.3963-.39644 7.5322-11.496 13.875-9.9107 6.3429 1.5858 15.461 20.218 26.561 24.182 5.5499 8.7214-1.5858 16.65-3.9644 18.236-2.3785 1.5858-13.082 5.9465-14.668-.39644-1.5856-6.3429-4.7572-5.1536-4.7572-5.1536s-50.743 49.554-109.41 47.572c-60.65.4-110.6-47.57-110.6-47.57l-4.3608 4.7571s-4.7572 5.1536-7.1357 4.7572c-2.3786-.39645-12.686-7.1357-13.479-13.875-.79286-6.7393 6.3429-11.1 6.3429-11.1s17.443-13.479 19.425-20.614c3.9643-3.9643 11.496 2.7749 11.496 2.7749s45.986 52.725 97.125 49.554z" fill="#f7c600" fill-rule="evenodd" stroke="#000" stroke-width="1.2551pt"/><path d="m639.02 360.66s4.7171-1.258 6.4468.7076c1.7296 1.9654 13.601 13.601 13.601 13.601" fill="none" stroke="#000" stroke-width="1.2551pt"/><path d="m649.79 366.16-4.7171 3.5378s11.871 2.3583 9.1984 10.142" fill="none" stroke="#000" stroke-width="1.2551pt"/><path d="m897.99 360.26s-2.3587-1.258-6.0537 1.4938c-3.6951 2.7516-13.051 13.208-13.051 13.208" fill="none" stroke="#000" stroke-width="1.2551pt"/><path d="m887.38 365.85 5.1102 3.9309s-10.692.70758-8.3336 10.849" fill="none" stroke="#000" stroke-width="1.2551pt"/><path d="m699.45 373.24-.34373.48199c-.71701-.35409-1.5348-.41981-2.4534-.19717-.67444.1741-1.9449.80744-3.8115 1.9l-15.708 9.1572-.42989-.30657 3.9573-18.363c.4782-2.2137.69667-3.558.65541-4.0329-.0326-.46868-.36407-.98674-.99438-1.5542l.34372-.48198 8.4674 6.0385-.34373.48199-.28659-.20438c-.76425-.54501-1.3534-.82108-1.7676-.82822-.29266-.0122-.52878.10767-.70837.3595-.1115.15634-.20992.36782-.29526.63447-.0792.25799-.25037.99404-.51356 2.2082l-2.5061 11.478 9.0745-5.3393c1.0919-.64932 1.8002-1.1006 2.1249-1.3538.32466-.2532.56752-.49269.72856-.71849.18578-.26053.28043-.54021.28396-.83906.003-.29883-.0923-.59636-.28711-.89257-.26817-.41394-.71054-.84078-1.3271-1.2805l.34373-.48199 5.7969 4.1341m5.6407 27.295-.28405.5194-9.9529-5.4431.28406-.5194.63171.34546c.55215.30197 1.0504.44681 1.4948.43454.31497.002.62498-.1202.93002-.36674.22577-.1683.59968-.72975 1.1217-1.6843l6.848-12.522c.53227-.97328.81347-1.6097.84361-1.9094.0301-.2996-.0653-.62532-.28623-.97717-.20649-.35605-.57644-.67995-1.1099-.97169l-.6317-.34548.28406-.51939 9.9528 5.443-.28405.5194-.6317-.34547c-.55218-.30195-1.0504-.4468-1.4948-.43453-.31499-.002-.62967.11766-.94404.35906-.2258.16832-.59971.72976-1.1217 1.6843l-6.848 12.522c-.53228.97329-.81348 1.6098-.8436 1.9094-.0208.30474.0721.63515.27856.99122.22094.35182.59813.6736 1.1316.96533l.63171.34548m36.36-8.5281-2.5662 7.2046-.55768-.19864c.0283-2.2093-.44834-4.0662-1.4297-5.5707-.98143-1.5045-2.271-2.5413-3.8686-3.1104-1.5274-.544-2.9524-.56467-4.275-.062-1.3191.49263-2.4635 1.4325-3.4331 2.8195-.96964 1.3871-1.7426 2.8895-2.3188 4.5073-.69793 1.9594-1.0788 3.76-1.1427 5.4017s.29312 2.9918 1.0711 4.0502c.78801 1.062 1.8904 1.8453 3.3072 2.3499.49235.17538 1.0127.30408 1.5609.38614.56187.0756 1.1499.10951 1.7641.10178l1.514-4.2504c.2863-.80386.41536-1.341.38717-1.6115-.0247-.28053-.17881-.57888-.46248-.89507-.27365-.3126-.65666-.5566-1.149-.73197l-.52753-.1879.19864-.55768 9.9327 3.5379-.19864.55768c-.77154-.2182-1.3367-.30059-1.6953-.24719-.34511.0469-.66247.22263-.95206.52711-.15846.1587-.37011.60984-.63494 1.3534l-1.5139 4.2504c-1.5139.11751-3.0311.0696-4.5517-.1436-1.5142-.19963-3.0298-.56966-4.5471-1.1101-1.9393-.69076-3.459-1.5264-4.5591-2.5071-1.0864-.98709-1.9699-2.0831-2.6504-3.2879-.66689-1.2113-1.0852-2.453-1.2549-3.725-.20947-1.6372-.008-3.3149.60383-5.0332 1.0952-3.0748 3.1006-5.2875 6.0161-6.6382 2.9156-1.3507 6.0112-1.4426 9.287-.27586 1.0149.36151 1.9006.76758 2.6573 1.2182.41347.23788 1.0446.7231 1.8933 1.4557.86232.72613 1.3839 1.1214 1.5648 1.1858.28132.10024.57836.0928.89113-.0223.3163-.1251.67694-.43825 1.0819-.93943l.55768.19864m15.318 24.587-.0887.58532-11.216-1.699.0887-.58533.71187.10784c.62224.0943 1.14.0594 1.5532-.10455.29657-.10612.54583-.32727.7478-.66349.15435-.23553.313-.89117.47596-1.9669l2.1376-14.111c.16614-1.0968.21197-1.7911.13751-2.0829-.0745-.29175-.27583-.56499-.60405-.81971-.31608-.26363-.77468-.44098-1.3758-.53206l-.71188-.10783.0887-.58533 11.216 1.699-.0887.58532-.71187-.10783c-.62224-.0942-1.14-.0594-1.5532.10455-.29658.10613-.55112.32649-.76362.66108-.15437.23556-.31302.89119-.47596 1.9669l-2.1376 14.111c-.16617 1.0968-.212 1.7911-.13752 2.0829.085.29337.28556.57189.60164.83553.32822.2547.7929.42758 1.394.51865l.71188.10783m29.114-7.0721-.42685 7.6477-19.239.98164-.0302-.59123.71906-.0367c.62851-.0321 1.1288-.16974 1.5009-.41302.26935-.16327.46937-.42981.60003-.79962.10413-.26164.12847-.93575.073-2.0223l-.72726-14.253c-.0565-1.1079-.15045-1.7973-.28175-2.0683-.13132-.27097-.38324-.49843-.75576-.68237-.36241-.1951-.84722-.27718-1.4544-.24621l-.71907.0367-.0302-.59124 11.553-.58946.0302.59123-.94278.0481c-.62853.032-1.1288.16977-1.5009.41302-.26938.16329-.47471.4301-.61601.80043-.10415.26166-.12849.93578-.073 2.0224l.70442 13.806c.0565 1.1079.15659 1.813.30019 2.1154.14305.29176.4048.50269.78527.63281.2712.0823.91814.0974 1.9408.0452l1.8056-.0922c1.1505-.0587 2.0989-.31003 2.8453-.75397.74633-.44394 1.3742-1.1168 1.8836-2.0186.52-.90233.98687-2.2185 1.4006-3.9485l.65515-.0334m21.045-3.6512-7.3433 2.1937-.26931 2.2847c-.0847.76003-.0613 1.3598.0699 1.7993.17402.58256.53733.9416 1.0899 1.0771.3248.0811 1.0411.0007 2.1489-.24118l.16945.56723-6.9141 2.0655-.16945-.56723c.7125-.33531 1.2341-.82511 1.5649-1.4694.3277-.65451.60753-1.8792.83949-3.674l2.48-18.809.29128-.087 12.589 14.808c1.1978 1.4011 2.0893 2.2425 2.6744 2.5241.44212.21303.98765.25044 1.6366.11224l.16945.56723-10.057 3.0043-.16945-.56722.41392-.12366c.80739-.24119 1.341-.52307 1.6009-.84563.17598-.23068.21819-.49934.1266-.80596-.055-.18395-.14211-.36387-.26144-.53975-.0479-.0858-.31573-.42333-.8034-1.0124l-1.8778-2.2611m-.86014-.97875-5.2355-6.2342-1.05 8.112 6.2855-1.8777m27.726-28.253 2.7806 5.1719-.50733.27276c-.94213-1.0315-1.7353-1.7071-2.3795-2.0269-.64926-.3291-1.3767-.47693-2.1822-.44352-.44793.0228-1.1182.27421-2.0106.75404l-1.4233.76524 7.9252 14.741c.5253.97708.9053 1.56 1.14 1.7487.24406.18365.57161.28609.98268.30729.41538.007.89554-.13632 1.4404-.42929l.63416-.34095.28033.52141-10.006 5.3794-.28034-.52142.63415-.34095c.55429-.29802.94752-.63659 1.1797-1.0157.17354-.26285.24491-.59187.2141-.98707-.0179-.28103-.28444-.90069-.79964-1.859l-7.9252-14.741-1.381.74251c-1.2871.69202-2.0754 1.4671-2.3649 2.3251-.40821 1.2004-.34152 2.5634.20005 4.0888l-.5355.28791-2.7806-5.1719 17.164-9.2284m13.014-7.7159 5.3186 7.051.34489-.26016c1.0985-.82861 1.6346-1.7741 1.6082-2.8364s-.47893-2.3176-1.3576-3.7659l.4854-.36615 6.841 9.0692-.4854.36614c-.84731-.91072-1.6747-1.5559-2.4821-1.9356-.79893-.38605-1.4958-.52173-2.0907-.40704-.60131.10621-1.315.47084-2.141 1.0939l3.6807 4.8795c.71943.95376 1.1978 1.5082 1.435 1.6632.24574.14866.53069.20761.85489.17684.32417-.0307.73322-.23242 1.2271-.60498l1.0347-.78045c1.618-1.2204 2.6297-2.5715 3.0352-4.0532.41402-1.4881.25581-3.1591-.47461-5.0131l.47261-.3565 3.3736 6.0931-14.971 11.292-.3565-.47262.5748-.43358c.50243-.37899.83948-.77352 1.0112-1.1836.13147-.28623.14762-.61908.0484-.99855-.0605-.27502-.41833-.84683-1.0735-1.7154l-8.5946-11.394c-.59095-.78343-.97516-1.2485-1.1526-1.3952-.30998-.2338-.64095-.34488-.99292-.33327-.50345.006-1.0362.22048-1.5982.64441l-.5748.43358-.35651-.47261 14.498-10.936 3.8637 5.1222-.48539.36614c-1.1912-1.0655-2.218-1.7005-3.0805-1.9051-.85392-.21096-1.786-.13586-2.7962.22531-.59251.20645-1.5445.80428-2.8559 1.7935l-1.7883 1.3489"/><path d="m664.42 374.87c70.909 57.515 140.41 58.57 208.41 0" fill="none"/></g></g></svg>