<svg xmlns="http://www.w3.org/2000/svg" xmlns:xlink="http://www.w3.org/1999/xlink" width="21.65" height="20" viewBox="0 0 21.65 20">
  <defs>
    <clipPath id="clip-path">
      <rect id="Rectangle_613" data-name="Rectangle 613" width="21.65" height="20" fill="none" stroke="#62072e" stroke-width="2"/>
    </clipPath>
  </defs>
  <g id="Group_1023" data-name="Group 1023" clip-path="url(#clip-path)">
    <g id="Path_197" data-name="Path 197" transform="translate(-0.236 -0.236)" fill="none" stroke-miterlimit="10">
      <path d="M15.814.5a6.324,6.324,0,0,0-4.752,2.207A6.324,6.324,0,0,0,6.309.5,5.752,5.752,0,0,0,.5,6.309C.5,10.3,4.091,13.553,9.53,18.5l1.531,1.383,1.531-1.394c5.439-4.932,9.03-8.185,9.03-12.177A5.752,5.752,0,0,0,15.814.5Z" stroke="none"/>
      <path d="M 6.308576583862305 2.499998092651367 C 5.269596099853516 2.499998092651367 4.307205200195312 2.890188217163086 3.598695755004883 3.598699569702148 C 2.890186309814453 4.307209014892578 2.499996185302734 5.269598960876465 2.499996185302734 6.308578491210938 C 2.499996185302734 9.405488967895508 5.815086364746094 12.41800880432129 10.83310604095459 16.9780387878418 L 11.0559549331665 17.17957878112793 L 11.26227569580078 16.99179840087891 C 16.29638671875 12.42689895629883 19.62211608886719 9.411149024963379 19.62211608886719 6.308578491210938 C 19.62211608886719 5.269598960876465 19.23192596435547 4.307209014892578 18.52341651916504 3.598699569702148 C 17.81490707397461 2.890188217163086 16.85251617431641 2.499998092651367 15.81353569030762 2.499998092651367 C 14.59308624267578 2.499998092651367 13.38569641113281 3.062219619750977 12.58375644683838 4.003938674926758 L 11.06105613708496 5.792048454284668 L 9.538355827331543 4.003938674926758 C 8.736415863037109 3.062219619750977 7.529026031494141 2.499998092651367 6.308576583862305 2.499998092651367 M 6.308576583862305 0.4999980926513672 C 8.146205902099609 0.4999980926513672 9.909895896911621 1.355449676513672 11.06105613708496 2.707258224487305 C 12.2122163772583 1.355449676513672 13.97590637207031 0.4999980926513672 15.81353569030762 0.4999980926513672 C 19.06633567810059 0.4999980926513672 21.62211608886719 3.055778503417969 21.62211608886719 6.308578491210938 C 21.62211608886719 10.3006591796875 18.03135681152344 13.55346870422363 12.59240627288818 18.4854793548584 L 11.06105613708496 19.87953948974609 L 9.529706001281738 18.49603843688965 C 4.090755462646484 13.55346870422363 0.4999961853027344 10.3006591796875 0.4999961853027344 6.308578491210938 C 0.4999961853027344 3.055778503417969 3.055776596069336 0.4999980926513672 6.308576583862305 0.4999980926513672 Z" stroke="none" fill="#62072e"/>
    </g>
  </g>
</svg>
