<svg xmlns="http://www.w3.org/2000/svg" xmlns:xlink="http://www.w3.org/1999/xlink" width="21.65" height="20" viewBox="0 0 21.65 20">
  <defs>
    <clipPath id="clip-path">
      <rect id="Rectangle_2" data-name="Rectangle 2" width="21.65" height="20" fill="#62072e" stroke="#62072e" stroke-width="2"/>
    </clipPath>
  </defs>
  <g id="Group_1" data-name="Group 1" clip-path="url(#clip-path)">
    <g id="Path_5" data-name="Path 5" transform="translate(-0.236 -0.236)" fill="#62072e" stroke-miterlimit="10">
      <path d="M 11.05850315093994 18.52955627441406 L 10.20008659362793 17.75401878356934 L 10.16057586669922 17.71811866760254 C 4.945365905761719 12.97888851165771 1.499996185302734 9.847969055175781 1.499996185302734 6.308578968048096 C 1.499996185302734 3.612178802490234 3.612176179885864 1.499998807907104 6.308576107025146 1.499998807907104 C 7.818236351013184 1.499998807907104 9.310256004333496 2.193678855895996 10.29970645904541 3.35559868812561 L 11.06105613708496 4.249658584594727 L 11.82240581512451 3.35559868812561 C 12.81185626983643 2.193678855895996 14.30387592315674 1.499998807907104 15.81353569030762 1.499998807907104 C 18.50993537902832 1.499998807907104 20.62211608886719 3.612178802490234 20.62211608886719 6.308578968048096 C 20.62211608886719 9.854269027709961 17.16579627990723 12.98843860626221 11.93401622772217 17.73258972167969 L 11.9206657409668 17.74468803405762 L 11.05850315093994 18.52955627441406 Z" stroke="none"/>
      <path d="M 6.308576583862305 2.499998092651367 C 5.269596099853516 2.499998092651367 4.307205200195312 2.890188217163086 3.598695755004883 3.598699569702148 C 2.890186309814453 4.307209014892578 2.499996185302734 5.269598960876465 2.499996185302734 6.308578491210938 C 2.499996185302734 9.405488967895508 5.815086364746094 12.41800880432129 10.83310604095459 16.9780387878418 L 11.0559549331665 17.17957878112793 L 11.26227569580078 16.99179840087891 C 16.29638671875 12.42689895629883 19.62211608886719 9.411149024963379 19.62211608886719 6.308578491210938 C 19.62211608886719 5.269598960876465 19.23192596435547 4.307209014892578 18.52341651916504 3.598699569702148 C 17.81490707397461 2.890188217163086 16.85251617431641 2.499998092651367 15.81353569030762 2.499998092651367 C 14.59308624267578 2.499998092651367 13.38569641113281 3.062219619750977 12.58375644683838 4.003938674926758 L 11.06105613708496 5.792048454284668 L 9.538355827331543 4.003938674926758 C 8.736415863037109 3.062219619750977 7.529026031494141 2.499998092651367 6.308576583862305 2.499998092651367 M 6.308576583862305 0.4999980926513672 C 8.146205902099609 0.4999980926513672 9.909895896911621 1.355449676513672 11.06105613708496 2.707258224487305 C 12.2122163772583 1.355449676513672 13.97590637207031 0.4999980926513672 15.81353569030762 0.4999980926513672 C 19.06633567810059 0.4999980926513672 21.62211608886719 3.055778503417969 21.62211608886719 6.308578491210938 C 21.62211608886719 10.3006591796875 18.03135681152344 13.55346870422363 12.59240627288818 18.4854793548584 L 11.06105613708496 19.87953948974609 L 9.529706001281738 18.49603843688965 C 4.090755462646484 13.55346870422363 0.4999961853027344 10.3006591796875 0.4999961853027344 6.308578491210938 C 0.4999961853027344 3.055778503417969 3.055776596069336 0.4999980926513672 6.308576583862305 0.4999980926513672 Z" stroke="none" fill="#62072e"/>
    </g>
  </g>
</svg>
